<svg xmlns="http://www.w3.org/2000/svg" viewBox="0 0 98.2 92" enable-background="new 0 0 98.2 92"><path fill="#fff" d="M75.5 31.2l-26.4-3.3-26.4-2.6L46.2 1.8zm15.5-4l-20.8 8H40.3L69.7 5.8z"/><path d="M34.4 72.5c-4.9 0-8.8 3.9-8.8 8.8s3.9 8.8 8.8 8.8 8.8-3.9 8.8-8.8c0-4.8-3.9-8.8-8.8-8.8zm41.1 0c-4.9 0-8.8 3.9-8.8 8.8s3.9 8.8 8.8 8.8 8.8-3.9 8.8-8.8c0-4.8-3.9-8.8-8.8-8.8zm16.2-50.8c-1.1-1.3-2.7-2.1-4.5-2.1H31c-1.8-7.1-7.3-11.7-14.2-11.7h-5.9C7.7 7.9 5 10.5 5 13.8s2.6 5.9 5.9 5.9h5.9c2.1 0 2.8 2.4 3 3.8 2.2 15.2 7 43.9 7 44.2.5 2.8 2.9 4.9 5.8 4.9 28.3 0 49.1-4.3 50-4.5 2.4-.5 4.2-2.4 4.6-4.8l5.9-36.7c.2-1.8-.3-3.5-1.4-4.9z"/></svg>