<svg xmlns="http://www.w3.org/2000/svg" viewBox="0 0 98.2 92" enable-background="new 0 0 98.2 92"><path d="M16.9 13.8v64.5h64.5V13.8H16.9zm45 25.7v.9c0 8.7-6.6 18.8-18.8 18.8-3.7 0-7.3-1.1-10.1-2.9.5.1 1 .1 1.6.1 3.1 0 6-1 8.2-2.8-2.9-.1-5.4-2-6.2-4.6h1.1c.6 0 1.2-.1 1.7-.3-3-.6-5.3-3.3-5.3-6.5v-.1c.9.5 1.9.8 3 .9-1.8-1.2-2.9-3.2-2.9-5.5 0-1.2.3-2.3.9-3.4 3.3 4 8.1 6.6 13.6 6.9-.1-.5-.2-.9-.2-1.5 0-3.6 2.9-6.6 6.6-6.6 1.9 0 3.6.8 4.8 2.1 1.5-.3 2.9-.9 4.2-1.6-.5 1.6-1.6 2.8-2.9 3.6 1.4-.2 2.6-.5 3.8-1-.7 1.3-1.8 2.6-3.1 3.5z"/></svg>