<svg id="Novicell" xmlns="http://www.w3.org/2000/svg" viewBox="0 0 122.4 34.2" width="123" height="50"><style>.st0{fill:#363636}</style><path class="st0" d="M53.1 33.9h-4.7l-7.3-18.5h5.2l4.4 12.5s2.4-7.1 3.2-9.2c.4-1.1 1-2.2 3.1-2.2h2.8l-6.7 17.4zm-31.7-9.2c0-5.5 3.9-9.6 9.8-9.6 5.8 0 9.9 3.9 9.9 9.6 0 5.7-4.1 9.6-9.9 9.6-5.8-.1-9.8-4.1-9.8-9.6zm14.7 0c0-3-2-5.1-4.8-5.1-2.9 0-4.8 2.2-4.8 5.1 0 2.9 2 5.1 4.8 5.1 2.6 0 4.8-2.1 4.8-5.1zm33 0c0-5.7 4-9.6 9.8-9.6 3 0 6 1.2 7.9 3.5l-3.3 2.9c-1-1.1-2.4-2-4.3-2-3 0-4.9 2.1-4.9 5.1 0 3 2.1 5.2 5 5.2 2 0 3.5-.9 4.3-1.9l3.4 3c-1.6 1.9-4.4 3.3-8.2 3.3-5.6 0-9.7-3.8-9.7-9.5zm36.9 1.6H93c.6 2.2 2.4 3.6 4.7 3.6 2 0 3.4-.8 4.4-2.1l3.2 3c-1.6 2-4.3 3.5-8 3.5-5.4 0-9.5-3.8-9.5-9.6 0-5.6 3.9-9.5 9.2-9.5 5.4 0 9.1 3.9 9.1 9.4 0 .5 0 1.4-.1 1.7zm-13-3.6h8.2c-.5-1.9-1.8-3.2-4-3.2-2 0-3.6 1.1-4.2 3.2zm16-11h5V34h-5V11.7zm8.4 0h5V34h-5V11.7zm-98.5 0V34h-5.4L5.3 21.7V34H0V11.7h5.3l8.2 13.2V11.7h5.4zm42 10.3v12h5V22.1c-.1.1-1.1.6-2.4.6-1.1 0-2.2-.5-2.6-.7zm3.6-11.7c2.3 3.7-1.1 5.3-1.9 5.7-.7.3-1.1 1.1-1.1 1.8 0 1.1.9 2 2 2 1.8 0 3.5-2.7 3.5-4.8-.1-2.8-2.5-4.7-2.5-4.7zm6.7-.1C71.2 5.3 67 0 63.5 0c-2 0-3.7 1.7-3.7 3.7 0 1.7 1.2 3.2 2.8 3.6 1.5.4 7.7 1.4 6.3 10.1.1 0 2.3-2.9 2.3-7.2zm-12.5 4.1c1.9.8 4.2-.7 4.2-2.8 0-1.6-1.1-3.1-3.6-3.1-3.4 0-9.2 2.3-8.5 10.2 1.2-5.8 5.5-5.3 7.9-4.3z"/></svg>