<?xml version="1.0" encoding="utf-8"?>
<!-- Generator: Adobe Illustrator 18.1.1, SVG Export Plug-In . SVG Version: 6.00 Build 0)  -->
<!DOCTYPE svg PUBLIC "-//W3C//DTD SVG 1.1//EN" "http://www.w3.org/Graphics/SVG/1.1/DTD/svg11.dtd">
<svg version="1.1" id="Layer_1" xmlns="http://www.w3.org/2000/svg" xmlns:xlink="http://www.w3.org/1999/xlink" x="0px" y="0px"
	 viewBox="0 0 47.9 75.9" enable-background="new 0 0 47.9 75.9" xml:space="preserve">
<path d="M4.6,44.7V19.9C4.6,4.2,15.7,0,21.6,0h4.7c13.4,0,17,13,17,19.9V26h-5.9v-6.1c0-0.6-0.2-14.1-11.1-14.1h-4.7
	c-1.1,0-11.1,0.5-11.1,14.1v24.8"/>
<path d="M39.7,39.6c8.2,0,8.2,8.2,8.2,8.2v19.9c0,8.2-8.2,8.2-8.2,8.2H8.2C0,75.9,0,67.7,0,67.7V47.8c0-8.2,8.2-8.2,8.2-8.2H39.7z
	 M28.3,52.4c0-2.4-2-4.4-4.4-4.4c-2.4,0-4.4,2-4.4,4.4c0,1.8,1.1,3.3,2.6,4l-1.4,11.2h6.5l-1.4-11.2C27.3,55.7,28.3,54.2,28.3,52.4z
	"/>
</svg>
