<?xml version="1.0" encoding="utf-8"?>
<!-- Generator: Adobe Illustrator 18.1.1, SVG Export Plug-In . SVG Version: 6.00 Build 0)  -->
<!DOCTYPE svg PUBLIC "-//W3C//DTD SVG 1.1//EN" "http://www.w3.org/Graphics/SVG/1.1/DTD/svg11.dtd">
<svg version="1.1" id="search" xmlns="http://www.w3.org/2000/svg" xmlns:xlink="http://www.w3.org/1999/xlink" x="0px" y="0px"
	 viewBox="0 0 91.2 87.8" enable-background="new 0 0 91.2 87.8" xml:space="preserve">
<path d="M54.4,70.8c-20.3,0-36.8-15.9-36.8-35.4C17.6,15.9,34.1,0,54.4,0c20.3,0,36.8,15.9,36.8,35.4C91.2,54.9,74.7,70.8,54.4,70.8
	z M54.4,10.5c-14.5,0-26.3,11.2-26.3,24.9c0,13.7,11.8,24.9,26.3,24.9c14.5,0,26.3-11.2,26.3-24.9C80.7,21.6,68.9,10.5,54.4,10.5z"
	/>
<polygon points="23.9,53.7 0,76.7 11.5,87.8 35.5,64.8 "/>
</svg>
