<?xml version="1.0" encoding="UTF-8"?>
<svg width="192px" height="73px" viewBox="0 0 192 73" version="1.1" xmlns="http://www.w3.org/2000/svg" xmlns:xlink="http://www.w3.org/1999/xlink">
    <path fill="#F2F2F2" d="M29.3435685,18.1400319 L29.3435685,52.8071977 L20.9007975,52.8071977 L8.24830879,33.6783398 L8.24830879,52.8071977 L0,52.8071977 L0,18.1400319 L8.24830879,18.1400319 L21.0470331,38.6721291 L21.0470331,18.1400319 L29.3435685,18.1400319 Z M56.1306592,38.3799691 C56.1306592,33.6537597 52.941479,30.4054631 48.6290852,30.4054631 C44.1393419,30.4054631 41.1259556,33.8311093 41.1259556,38.3799691 C41.1259556,42.8697124 44.2575749,46.3544751 48.6290852,46.3544751 C52.823246,46.3544751 56.1306592,43.047062 56.1306592,38.3799691 M33.3303548,38.3799691 C33.3303548,29.7567372 39.472249,23.4950543 48.6290852,23.4950543 C57.6070162,23.4950543 63.9869321,29.5202712 63.9869321,38.3799691 C63.9869321,47.2396671 57.6070162,53.264884 48.6290852,53.264884 C39.472249,53.264884 33.3303548,47.0047567 33.3303548,38.3799691 Z M82.6201448,52.7930409 L75.3550369,52.7930409 L64.0140013,23.9675196 L72.1658568,23.9675196 L78.9580326,43.3421778 L79.0171491,43.3421778 C79.0171491,43.3421778 82.7974944,32.310726 84.0404968,29.0266483 C84.6612201,27.3853873 85.5604133,25.6523402 88.9129417,25.6523402 C92.2670258,25.6523402 93.2564495,25.6492288 93.2564495,25.6492288 L82.6201448,52.7930409 Z M102.429465,33.4235165 C102.4528,33.4110709 102.473024,33.3955139 102.49636,33.3815127 L102.49636,52.7935076 L94.7583199,52.7935076 L94.7583199,33.1854948 C95.4459383,33.6817623 96.2206757,34.0582411 97.0654195,34.2713717 C97.6208036,34.4160516 98.1917446,34.4876137 98.7642413,34.4876137 C100.067916,34.4876137 101.326475,34.1235804 102.429465,33.4235165 Z M107.581158,38.3799691 C107.581158,29.5202712 113.841285,23.4950543 122.761655,23.4950543 C127.369631,23.4950543 132.094285,25.3245547 134.989438,28.9882226 L129.790297,33.4779659 C128.254823,31.7044706 126.011507,30.4054631 123.055682,30.4054631 C118.449261,30.4054631 115.378314,33.6537597 115.378314,38.3208526 C115.378314,43.047062 118.567494,46.3544751 123.114798,46.3544751 C126.187301,46.3544751 128.491289,44.9372346 129.849413,43.401761 L135.106116,48.0688539 C132.627889,50.9624515 128.195707,53.264884 122.406956,53.264884 C113.841285,53.264884 107.581158,47.2396671 107.581158,38.3799691 Z M145.568182,35.3080886 L158.267342,35.3080886 C157.500383,32.2947023 155.432861,30.2878524 152.066331,30.2878524 C148.934712,30.2878524 146.453374,32.0006754 145.568182,35.3080886 M165.768916,40.8603734 L145.509066,40.8603734 C146.453374,44.2860196 149.171178,46.4142139 152.892406,46.4142139 C155.964909,46.4733304 158.208225,45.1152064 159.802815,43.1643616 L164.824607,47.8314544 C162.34327,50.9630738 158.150664,53.2655062 152.360358,53.2655062 C143.914476,53.2655062 137.53456,47.3585224 137.53456,38.3214749 C137.53456,29.5784543 143.618893,23.4941209 151.828309,23.4941209 C160.275747,23.4941209 165.947821,29.6375708 165.947821,38.0850088 C165.947821,39.030873 165.947821,40.388997 165.768916,40.8603734 Z M171.242327,52.7925742 L171.242327,18.1394096 L178.980367,18.1394096 L178.980367,52.7925742 L171.242327,52.7925742 Z M184.260404,52.7925742 L184.260404,18.1394096 L192,18.1394096 L192,52.7925742 L184.260404,52.7925742 Z M107.336602,27.0373778 C109.407235,13.5323667 100.023267,12.02334 97.8266224,11.4228407 C95.6299773,10.8238972 94.3418597,9.88270009 93.5437868,8.04075411 C92.282116,5.12070967 93.6293502,1.72462177 96.5493946,0.47384088 C98.1999898,-0.241780025 100.004599,-0.118879913 101.488735,0.654301804 L101.491846,0.646523316 C103.382019,1.55660642 104.685693,2.85561394 104.685693,2.85561394 C116.729904,14.6555804 107.336602,27.0373778 107.336602,27.0373778 Z M100.364743,16.0647313 C100.364743,16.0647313 107.497617,21.4194425 102.110236,28.6409909 C102.110236,28.6409909 101.534628,29.432841 100.610543,30.0691213 L100.602765,30.05512 C99.8824768,30.5840572 98.9521696,30.8096334 98.018751,30.5685002 C96.3728229,30.1500176 95.3849549,28.4698641 95.806549,26.823936 C96.0756847,25.7862857 96.8441993,25.0115483 97.7900635,24.6848518 C98.5648009,24.3706009 103.994186,21.8892632 100.364743,16.0647313 Z M91.0055106,22.1697555 C89.7718424,21.6641537 81.1797244,18.5745383 78.881959,28.8561438 C78.881959,28.8561438 76.8408837,15.2717922 90.5434684,13.1622662 C90.5434684,13.1622662 92.0307153,12.9180217 93.7326485,13.2167157 L93.7264257,13.2447182 C95.0861054,13.4391804 96.353999,14.1999166 97.1147351,15.4724772 C98.4681921,17.706459 97.7401256,20.6171692 95.5014767,21.9675148 C94.0811248,22.8215928 92.3931929,22.8355941 91.0055106,22.1697555 Z"></path>    
    <path d="M10.2385,72 L9.0406,72 L9.0406,63.4332 L14.3888,63.4332 L14.3888,64.4859 L10.2385,64.4859 L10.2385,67.1479 L14.1226,67.1479 L14.1226,68.1764 L10.2385,68.1764 L10.2385,72 Z M17.1113,72 L15.9134,72 L15.9134,63.4332 L18.6601,63.4332 C19.0715021,63.4332 19.4627315,63.4755496 19.8338,63.56025 C20.2048685,63.6449504 20.5295486,63.7800657 20.80785,63.9656 C21.0861514,64.1511343 21.3059659,64.3951485 21.4673,64.69765 C21.6286341,65.0001515 21.7093,65.3691978 21.7093,65.8048 C21.7093,66.4340031 21.5157019,66.9421981 21.1285,67.3294 C20.7412981,67.7166019 20.2411697,67.9626328 19.6281,68.0675 L22.0239,72 L20.5719,72 L18.3939,68.1885 L17.1113,68.1885 L17.1113,72 Z M17.1113,67.1842 L18.4907,67.1842 C18.7730347,67.1842 19.0351988,67.1600002 19.2772,67.1116 C19.5192012,67.0631998 19.7309491,66.9845505 19.91245,66.87565 C20.0939509,66.7667495 20.2371328,66.6255842 20.342,66.45215 C20.4468672,66.2787158 20.4993,66.0629346 20.4993,65.8048 C20.4993,65.5466654 20.4468672,65.3308842 20.342,65.15745 C20.2371328,64.9840158 20.0979842,64.8448672 19.92455,64.74 C19.7511158,64.6351328 19.5474345,64.5605169 19.3135,64.51615 C19.0795655,64.4717831 18.8335346,64.4496 18.5754,64.4496 L17.1113,64.4496 L17.1113,67.1842 Z M31.9822,67.7045 C31.9822,68.36597 31.8672511,68.9729806 31.63735,69.52555 C31.4074489,70.0781194 31.0908353,70.554048 30.6875,70.95335 C30.2841647,71.352652 29.8042028,71.6632156 29.2476,71.88505 C28.6909972,72.1068844 28.0860033,72.2178 27.4326,72.2178 C26.7791967,72.2178 26.1762194,72.1068844 25.62365,71.88505 C25.0710806,71.6632156 24.5931353,71.352652 24.1898,70.95335 C23.7864646,70.554048 23.4718678,70.0781194 23.246,69.52555 C23.0201322,68.9729806 22.9072,68.36597 22.9072,67.7045 C22.9072,67.0349633 23.0201322,66.4239194 23.246,65.87135 C23.4718678,65.3187806 23.7864646,64.8468853 24.1898,64.45565 C24.5931353,64.0644147 25.0710806,63.7599011 25.62365,63.5421 C26.1762194,63.3242989 26.7791967,63.2154 27.4326,63.2154 C28.0860033,63.2154 28.6909972,63.3242989 29.2476,63.5421 C29.8042028,63.7599011 30.2841647,64.0644147 30.6875,64.45565 C31.0908353,64.8468853 31.4074489,65.3187806 31.63735,65.87135 C31.8672511,66.4239194 31.9822,67.0349633 31.9822,67.7045 Z M30.6875,67.7045 C30.6875,67.236631 30.6108674,66.7949854 30.4576,66.37955 C30.3043326,65.9641146 30.0865347,65.5991016 29.8042,65.2845 C29.5218653,64.9698984 29.181052,64.7218509 28.78175,64.54035 C28.382448,64.3588491 27.9327358,64.2681 27.4326,64.2681 C26.9405309,64.2681 26.494852,64.3588491 26.09555,64.54035 C25.696248,64.7218509 25.3574514,64.9698984 25.07915,65.2845 C24.8008486,65.5991016 24.5850674,65.9641146 24.4318,66.37955 C24.2785326,66.7949854 24.2019,67.236631 24.2019,67.7045 C24.2019,68.1804357 24.2785326,68.6281312 24.4318,69.0476 C24.5850674,69.4670688 24.8028653,69.8320818 25.0852,70.14265 C25.3675347,70.4532182 25.7063314,70.6972324 26.1016,70.8747 C26.4968686,71.0521676 26.9405309,71.1409 27.4326,71.1409 C27.9246691,71.1409 28.3723647,71.0521676 28.7757,70.8747 C29.1790353,70.6972324 29.5218653,70.4532182 29.8042,70.14265 C30.0865347,69.8320818 30.3043326,69.4670688 30.4576,69.0476 C30.6108674,68.6281312 30.6875,68.1804357 30.6875,67.7045 Z M39.6536,70.2818 L39.6778,70.2818 L39.6778,63.4332 L40.8757,63.4332 L40.8757,72 L39.3632,72 L34.8378,65.0062 L34.8136,65.0062 L34.8136,72 L33.6157,72 L33.6157,63.4332 L35.1766,63.4332 L39.6536,70.2818 Z M45.9577,72 L44.7598,72 L44.7598,64.4859 L42.0131,64.4859 L42.0131,63.4332 L48.7044,63.4332 L48.7044,64.4859 L45.9577,64.4859 L45.9577,72 Z M51.0397,70.9352 L55.5167,70.9352 L55.5167,72 L49.8418,72 L49.8418,63.4332 L55.3352,63.4332 L55.3352,64.4859 L51.0397,64.4859 L51.0397,67.0511 L55.0811,67.0511 L55.0811,68.0796 L51.0397,68.0796 L51.0397,70.9352 Z M63.1518,70.2818 L63.176,70.2818 L63.176,63.4332 L64.3739,63.4332 L64.3739,72 L62.8614,72 L58.336,65.0062 L58.3118,65.0062 L58.3118,72 L57.1139,72 L57.1139,63.4332 L58.6748,63.4332 L63.1518,70.2818 Z M66.4551,63.4332 L69.3954,63.4332 C69.9439361,63.4332 70.4924639,63.5138659 71.041,63.6752 C71.5895361,63.8365341 72.0856311,64.0906316 72.5293,64.4375 C72.9729689,64.7843684 73.331932,65.2280306 73.6062,65.7685 C73.880468,66.3089694 74.0176,66.9583295 74.0176,67.7166 C74.0176,68.4506703 73.880468,69.085914 73.6062,69.62235 C73.331932,70.158786 72.9729689,70.6024482 72.5293,70.95335 C72.0856311,71.3042518 71.5895361,71.5664158 71.041,71.73985 C70.4924639,71.9132842 69.9439361,72 69.3954,72 L66.4551,72 L66.4551,63.4332 Z M67.653,70.9473 L69.1534,70.9473 C69.6696692,70.9473 70.1476145,70.8747007 70.58725,70.7295 C71.0268855,70.5842993 71.4060151,70.374568 71.72465,70.1003 C72.0432849,69.826032 72.2913324,69.4872353 72.4688,69.0839 C72.6462676,68.6805646 72.735,68.2248025 72.735,67.7166 C72.735,67.1841973 72.6462676,66.7163353 72.4688,66.313 C72.2913324,65.9096646 72.0432849,65.5728847 71.72465,65.30265 C71.4060151,65.0324153 71.0268855,64.8267174 70.58725,64.68555 C70.1476145,64.5443826 69.6696692,64.4738 69.1534,64.4738 L67.653,64.4738 L67.653,70.9473 Z M84.3026,69.9793 L86.2628,72 L84.6777,72 L83.6129,70.8747 C83.2902317,71.2780353 82.9252187,71.5926322 82.51785,71.8185 C82.1104813,72.0443678 81.6083363,72.1573 81.0114,72.1573 C80.6403315,72.1573 80.2854017,72.1048672 79.9466,72 C79.6077983,71.8951328 79.3113513,71.739851 79.05725,71.53415 C78.8031487,71.328449 78.6014841,71.0743515 78.45225,70.77185 C78.3030159,70.4693485 78.2284,70.1204686 78.2284,69.7252 C78.2284,69.4025317 78.2828495,69.1141513 78.39175,68.86005 C78.5006505,68.6059487 78.6438324,68.3780677 78.8213,68.1764 C78.9987676,67.9747323 79.2044655,67.7972674 79.4384,67.644 C79.6723345,67.4907326 79.9102988,67.3576339 80.1523,67.2447 C79.878032,66.9623653 79.6461176,66.6618849 79.45655,66.34325 C79.2669824,66.0246151 79.1722,65.6717019 79.1722,65.2845 C79.1722,64.9376316 79.234716,64.6351346 79.35975,64.377 C79.484784,64.1188654 79.6541823,63.9030842 79.86795,63.72965 C80.0817177,63.5562158 80.325732,63.4271504 80.6,63.34245 C80.874268,63.2577496 81.1606318,63.2154 81.4591,63.2154 C81.7575682,63.2154 82.0398987,63.2577496 82.3061,63.34245 C82.5723013,63.4271504 82.8062323,63.5541992 83.0079,63.7236 C83.2095677,63.8930008 83.3708994,64.1027321 83.4919,64.3528 C83.6129006,64.6028679 83.6734,64.893265 83.6734,65.224 C83.6734,65.5063347 83.6229838,65.7604322 83.52215,65.9863 C83.4213162,66.2121678 83.2862008,66.4178657 83.1168,66.6034 C82.9473992,66.7889343 82.7517844,66.9542993 82.52995,67.0995 C82.3081156,67.2447007 82.0762012,67.3737661 81.8342,67.4867 L83.5403,69.2412 L84.6172,67.4262 L85.9482,67.4262 L84.3026,69.9793 Z M82.5723,65.2482 C82.5723,64.9416651 82.469451,64.6835344 82.26375,64.4738 C82.058049,64.2640656 81.7938683,64.1592 81.4712,64.1592 C81.140465,64.1592 80.8662011,64.2640656 80.6484,64.4738 C80.4305989,64.6835344 80.3217,64.9577983 80.3217,65.2966 C80.3217,65.433734 80.3479164,65.570866 80.40035,65.708 C80.4527836,65.845134 80.5193329,65.9802493 80.6,66.11335 C80.6806671,66.2464507 80.7714162,66.3694661 80.87225,66.4824 C80.9730838,66.5953339 81.0718995,66.6961662 81.1687,66.7849 C81.3461676,66.7042329 81.5195992,66.6155005 81.689,66.5187 C81.8584008,66.4218995 82.0076327,66.3089673 82.1367,66.1799 C82.2657673,66.0508327 82.3706329,65.9096674 82.4513,65.7564 C82.5319671,65.6031326 82.5723,65.4337343 82.5723,65.2482 Z M80.8178,67.9828 C80.3983312,68.1602676 80.0635679,68.3820987 79.8135,68.6483 C79.5634321,68.9145013 79.4384,69.2653978 79.4384,69.701 C79.4384,69.9268678 79.4827662,70.1325657 79.5715,70.3181 C79.6602338,70.5036343 79.7792159,70.6609327 79.92845,70.79 C80.0776841,70.9190673 80.249099,71.017883 80.4427,71.08645 C80.636301,71.155017 80.8339323,71.1893 81.0356,71.1893 C81.4470021,71.1893 81.7938653,71.0985509 82.0762,70.91705 C82.3585347,70.7355491 82.6166655,70.4673351 82.8506,70.1124 L80.8178,67.9828 Z M90.4615,63.4332 L93.4018,63.4332 C93.9503361,63.4332 94.4988639,63.5138659 95.0474,63.6752 C95.5959361,63.8365341 96.0920311,64.0906316 96.5357,64.4375 C96.9793689,64.7843684 97.338332,65.2280306 97.6126,65.7685 C97.886868,66.3089694 98.024,66.9583295 98.024,67.7166 C98.024,68.4506703 97.886868,69.085914 97.6126,69.62235 C97.338332,70.158786 96.9793689,70.6024482 96.5357,70.95335 C96.0920311,71.3042518 95.5959361,71.5664158 95.0474,71.73985 C94.4988639,71.9132842 93.9503361,72 93.4018,72 L90.4615,72 L90.4615,63.4332 Z M91.6594,70.9473 L93.1598,70.9473 C93.6760692,70.9473 94.1540145,70.8747007 94.59365,70.7295 C95.0332855,70.5842993 95.4124151,70.374568 95.73105,70.1003 C96.0496849,69.826032 96.2977324,69.4872353 96.4752,69.0839 C96.6526676,68.6805646 96.7414,68.2248025 96.7414,67.7166 C96.7414,67.1841973 96.6526676,66.7163353 96.4752,66.313 C96.2977324,65.9096646 96.0496849,65.5728847 95.73105,65.30265 C95.4124151,65.0324153 95.0332855,64.8267174 94.59365,64.68555 C94.1540145,64.5443826 93.6760692,64.4738 93.1598,64.4738 L91.6594,64.4738 L91.6594,70.9473 Z M100.8675,70.9352 L105.3445,70.9352 L105.3445,72 L99.6696,72 L99.6696,63.4332 L105.163,63.4332 L105.163,64.4859 L100.8675,64.4859 L100.8675,67.0511 L104.9089,67.0511 L104.9089,68.0796 L100.8675,68.0796 L100.8675,70.9352 Z M111.2009,65.0183 C111.031499,64.7843655 110.801601,64.5927841 110.5112,64.44355 C110.220799,64.2943159 109.894102,64.2197 109.5311,64.2197 C109.337499,64.2197 109.141884,64.2459164 108.94425,64.29835 C108.746616,64.3507836 108.567134,64.4354827 108.4058,64.55245 C108.244466,64.6694173 108.113384,64.8146158 108.01255,64.98805 C107.911716,65.1614842 107.8613,65.3691988 107.8613,65.6112 C107.8613,65.8451345 107.907683,66.0407492 108.00045,66.19805 C108.093217,66.3553508 108.218249,66.4884495 108.37555,66.59735 C108.532851,66.7062505 108.718382,66.7990163 108.93215,66.87565 C109.145918,66.9522837 109.373799,67.0309329 109.6158,67.1116 C109.906201,67.2003338 110.200632,67.3011661 110.4991,67.4141 C110.797568,67.5270339 111.067799,67.6762657 111.3098,67.8618 C111.551801,68.0473343 111.749433,68.2792486 111.9027,68.55755 C112.055967,68.8358514 112.1326,69.1887645 112.1326,69.6163 C112.1326,70.0599689 112.049917,70.4451484 111.88455,70.77185 C111.719183,71.0985516 111.499368,71.3687823 111.2251,71.58255 C110.950832,71.7963177 110.634218,71.9556328 110.27525,72.0605 C109.916282,72.1653672 109.547235,72.2178 109.1681,72.2178 C108.627631,72.2178 108.105319,72.1129344 107.60115,71.9032 C107.096981,71.6934656 106.679535,71.3829021 106.3488,70.9715 L107.2805,70.185 C107.482168,70.4834682 107.752398,70.7254657 108.0912,70.911 C108.430002,71.0965343 108.797031,71.1893 109.1923,71.1893 C109.393968,71.1893 109.595632,71.1610669 109.7973,71.1046 C109.998968,71.0481331 110.182483,70.9594006 110.34785,70.8384 C110.513217,70.7173994 110.648333,70.5661509 110.7532,70.38465 C110.858067,70.2031491 110.9105,69.9833346 110.9105,69.7252 C110.9105,69.4670654 110.856051,69.2512842 110.74715,69.07785 C110.638249,68.9044158 110.491034,68.7572006 110.3055,68.6362 C110.119966,68.5151994 109.904185,68.4123504 109.65815,68.32765 C109.412115,68.2429496 109.151968,68.1562338 108.8777,68.0675 C108.603432,67.9868329 108.333201,67.8880173 108.067,67.77105 C107.800799,67.6540827 107.562834,67.5048509 107.3531,67.32335 C107.143366,67.1418491 106.973967,66.9180013 106.8449,66.6518 C106.715833,66.3855987 106.6513,66.0548686 106.6513,65.6596 C106.6513,65.2320645 106.738016,64.8650349 106.91145,64.5585 C107.084884,64.2519651 107.310749,63.9978677 107.58905,63.7962 C107.867351,63.5945323 108.181948,63.4473171 108.53285,63.35455 C108.883752,63.2617829 109.236665,63.2154 109.5916,63.2154 C110.091736,63.2154 110.559598,63.3041324 110.9952,63.4816 C111.430802,63.6590676 111.781699,63.8970318 112.0479,64.1955 L111.2009,65.0183 Z M115.0245,72 L113.8266,72 L113.8266,63.4332 L115.0245,63.4332 L115.0245,72 Z M123.5671,65.1998 C123.308965,64.9174653 122.980252,64.6916008 122.58095,64.5222 C122.181648,64.3527992 121.735969,64.2681 121.2439,64.2681 C120.743764,64.2681 120.292035,64.3588491 119.8887,64.54035 C119.485365,64.7218509 119.142535,64.9698984 118.8602,65.2845 C118.577865,65.5991016 118.360067,65.9641146 118.2068,66.37955 C118.053533,66.7949854 117.9769,67.236631 117.9769,67.7045 C117.9769,68.1804357 118.053533,68.6281312 118.2068,69.0476 C118.360067,69.4670688 118.577865,69.8320818 118.8602,70.14265 C119.142535,70.4532182 119.489398,70.6972324 119.9008,70.8747 C120.312202,71.0521676 120.771997,71.1409 121.2802,71.1409 C121.683535,71.1409 122.054598,71.1046004 122.3934,71.032 C122.732202,70.9593996 123.026632,70.854534 123.2767,70.7174 L123.2767,68.3337 L121.377,68.3337 L121.377,67.3173 L124.4625,67.3173 L124.4625,71.4676 C124.010764,71.7096012 123.518703,71.8951327 122.9863,72.0242 C122.453897,72.1532673 121.873103,72.2178 121.2439,72.2178 C120.574363,72.2178 119.959286,72.1068844 119.39865,71.88505 C118.838014,71.6632156 118.356035,71.352652 117.9527,70.95335 C117.549365,70.554048 117.234768,70.0781194 117.0089,69.52555 C116.783032,68.9729806 116.6701,68.36597 116.6701,67.7045 C116.6701,67.0349633 116.785049,66.4239194 117.01495,65.87135 C117.244851,65.3187806 117.563481,64.8468853 117.97085,64.45565 C118.378219,64.0644147 118.860197,63.7599011 119.4168,63.5421 C119.973403,63.3242989 120.578397,63.2154 121.2318,63.2154 C121.91747,63.2154 122.528514,63.3162323 123.06495,63.5179 C123.601386,63.7195677 124.047065,63.9897983 124.402,64.3286 L123.5671,65.1998 Z M132.5574,70.2818 L132.5816,70.2818 L132.5816,63.4332 L133.7795,63.4332 L133.7795,72 L132.267,72 L127.7416,65.0062 L127.7174,65.0062 L127.7174,72 L126.5195,72 L126.5195,63.4332 L128.0804,63.4332 L132.5574,70.2818 Z M143.1449,65.0183 C142.975499,64.7843655 142.745601,64.5927841 142.4552,64.44355 C142.164799,64.2943159 141.838102,64.2197 141.4751,64.2197 C141.281499,64.2197 141.085884,64.2459164 140.88825,64.29835 C140.690616,64.3507836 140.511134,64.4354827 140.3498,64.55245 C140.188466,64.6694173 140.057384,64.8146158 139.95655,64.98805 C139.855716,65.1614842 139.8053,65.3691988 139.8053,65.6112 C139.8053,65.8451345 139.851683,66.0407492 139.94445,66.19805 C140.037217,66.3553508 140.162249,66.4884495 140.31955,66.59735 C140.476851,66.7062505 140.662382,66.7990163 140.87615,66.87565 C141.089918,66.9522837 141.317799,67.0309329 141.5598,67.1116 C141.850201,67.2003338 142.144632,67.3011661 142.4431,67.4141 C142.741568,67.5270339 143.011799,67.6762657 143.2538,67.8618 C143.495801,68.0473343 143.693433,68.2792486 143.8467,68.55755 C143.999967,68.8358514 144.0766,69.1887645 144.0766,69.6163 C144.0766,70.0599689 143.993917,70.4451484 143.82855,70.77185 C143.663183,71.0985516 143.443368,71.3687823 143.1691,71.58255 C142.894832,71.7963177 142.578218,71.9556328 142.21925,72.0605 C141.860282,72.1653672 141.491235,72.2178 141.1121,72.2178 C140.571631,72.2178 140.049319,72.1129344 139.54515,71.9032 C139.040981,71.6934656 138.623535,71.3829021 138.2928,70.9715 L139.2245,70.185 C139.426168,70.4834682 139.696398,70.7254657 140.0352,70.911 C140.374002,71.0965343 140.741031,71.1893 141.1363,71.1893 C141.337968,71.1893 141.539632,71.1610669 141.7413,71.1046 C141.942968,71.0481331 142.126483,70.9594006 142.29185,70.8384 C142.457217,70.7173994 142.592333,70.5661509 142.6972,70.38465 C142.802067,70.2031491 142.8545,69.9833346 142.8545,69.7252 C142.8545,69.4670654 142.800051,69.2512842 142.69115,69.07785 C142.582249,68.9044158 142.435034,68.7572006 142.2495,68.6362 C142.063966,68.5151994 141.848185,68.4123504 141.60215,68.32765 C141.356115,68.2429496 141.095968,68.1562338 140.8217,68.0675 C140.547432,67.9868329 140.277201,67.8880173 140.011,67.77105 C139.744799,67.6540827 139.506834,67.5048509 139.2971,67.32335 C139.087366,67.1418491 138.917967,66.9180013 138.7889,66.6518 C138.659833,66.3855987 138.5953,66.0548686 138.5953,65.6596 C138.5953,65.2320645 138.682016,64.8650349 138.85545,64.5585 C139.028884,64.2519651 139.254749,63.9978677 139.53305,63.7962 C139.811351,63.5945323 140.125948,63.4473171 140.47685,63.35455 C140.827752,63.2617829 141.180665,63.2154 141.5356,63.2154 C142.035736,63.2154 142.503598,63.3041324 142.9392,63.4816 C143.374802,63.6590676 143.725699,63.8970318 143.9919,64.1955 L143.1449,65.0183 Z M148.8561,72 L147.6461,72 L147.6461,68.2974 L144.4396,63.4332 L145.9158,63.4332 L148.2874,67.3052 L150.6711,63.4332 L152.0626,63.4332 L148.8561,68.2974 L148.8561,72 Z M157.3261,65.0183 C157.156699,64.7843655 156.926801,64.5927841 156.6364,64.44355 C156.345999,64.2943159 156.019302,64.2197 155.6563,64.2197 C155.462699,64.2197 155.267084,64.2459164 155.06945,64.29835 C154.871816,64.3507836 154.692334,64.4354827 154.531,64.55245 C154.369666,64.6694173 154.238584,64.8146158 154.13775,64.98805 C154.036916,65.1614842 153.9865,65.3691988 153.9865,65.6112 C153.9865,65.8451345 154.032883,66.0407492 154.12565,66.19805 C154.218417,66.3553508 154.343449,66.4884495 154.50075,66.59735 C154.658051,66.7062505 154.843582,66.7990163 155.05735,66.87565 C155.271118,66.9522837 155.498999,67.0309329 155.741,67.1116 C156.031401,67.2003338 156.325832,67.3011661 156.6243,67.4141 C156.922768,67.5270339 157.192999,67.6762657 157.435,67.8618 C157.677001,68.0473343 157.874633,68.2792486 158.0279,68.55755 C158.181167,68.8358514 158.2578,69.1887645 158.2578,69.6163 C158.2578,70.0599689 158.175117,70.4451484 158.00975,70.77185 C157.844383,71.0985516 157.624568,71.3687823 157.3503,71.58255 C157.076032,71.7963177 156.759418,71.9556328 156.40045,72.0605 C156.041482,72.1653672 155.672435,72.2178 155.2933,72.2178 C154.752831,72.2178 154.230519,72.1129344 153.72635,71.9032 C153.222181,71.6934656 152.804735,71.3829021 152.474,70.9715 L153.4057,70.185 C153.607368,70.4834682 153.877598,70.7254657 154.2164,70.911 C154.555202,71.0965343 154.922231,71.1893 155.3175,71.1893 C155.519168,71.1893 155.720832,71.1610669 155.9225,71.1046 C156.124168,71.0481331 156.307683,70.9594006 156.47305,70.8384 C156.638417,70.7173994 156.773533,70.5661509 156.8784,70.38465 C156.983267,70.2031491 157.0357,69.9833346 157.0357,69.7252 C157.0357,69.4670654 156.981251,69.2512842 156.87235,69.07785 C156.763449,68.9044158 156.616234,68.7572006 156.4307,68.6362 C156.245166,68.5151994 156.029385,68.4123504 155.78335,68.32765 C155.537315,68.2429496 155.277168,68.1562338 155.0029,68.0675 C154.728632,67.9868329 154.458401,67.8880173 154.1922,67.77105 C153.925999,67.6540827 153.688034,67.5048509 153.4783,67.32335 C153.268566,67.1418491 153.099167,66.9180013 152.9701,66.6518 C152.841033,66.3855987 152.7765,66.0548686 152.7765,65.6596 C152.7765,65.2320645 152.863216,64.8650349 153.03665,64.5585 C153.210084,64.2519651 153.435949,63.9978677 153.71425,63.7962 C153.992551,63.5945323 154.307148,63.4473171 154.65805,63.35455 C155.008952,63.2617829 155.361865,63.2154 155.7168,63.2154 C156.216936,63.2154 156.684798,63.3041324 157.1204,63.4816 C157.556002,63.6590676 157.906899,63.8970318 158.1731,64.1955 L157.3261,65.0183 Z M162.759,72 L161.5611,72 L161.5611,64.4859 L158.8144,64.4859 L158.8144,63.4332 L165.5057,63.4332 L165.5057,64.4859 L162.759,64.4859 L162.759,72 Z M167.841,70.9352 L172.318,70.9352 L172.318,72 L166.6431,72 L166.6431,63.4332 L172.1365,63.4332 L172.1365,64.4859 L167.841,64.4859 L167.841,67.0511 L171.8824,67.0511 L171.8824,68.0796 L167.841,68.0796 L167.841,70.9352 Z M178.3438,70.0156 L178.368,70.0156 L180.8969,63.4332 L182.7603,63.4332 L182.7603,72 L181.5624,72 L181.5624,64.8368 L181.5382,64.8368 L178.6947,72 L177.9324,72 L175.101,64.8368 L175.0768,64.8368 L175.0768,72 L173.9152,72 L173.9152,63.4332 L175.7786,63.4332 L178.3438,70.0156 Z" fill="#FFFFFF" fill-rule="nonzero"></path>

</svg>