<?xml version="1.0" encoding="utf-8"?><svg xmlns="http://www.w3.org/2000/svg" xmlns:xlink="http://www.w3.org/1999/xlink"><symbol viewBox="0 0 13 8" id="icon-arrow-down" xmlns="http://www.w3.org/2000/svg"><title>icon / arrow-down</title><path d="M6.62 5.086L2.197.783.803 2.217 6.66 7.914l5.557-5.717L10.783.803z"/></symbol><symbol viewBox="0 0 512 512" id="icon-box" xmlns="http://www.w3.org/2000/svg"><path d="M491.729 112.971L259.261.745a7.503 7.503 0 0 0-6.521 0L20.271 112.971a7.5 7.5 0 0 0-4.239 6.754v272.549a7.5 7.5 0 0 0 4.239 6.754l232.468 112.226a7.504 7.504 0 0 0 6.522 0l232.468-112.226a7.5 7.5 0 0 0 4.239-6.754V119.726a7.502 7.502 0 0 0-4.239-6.755zM256 15.828l215.217 103.897-62.387 30.118a7.434 7.434 0 0 0-1.27-.8L193.805 45.853 256 15.828zm-79.133 38.505l214.904 103.746-44.015 21.249L132.941 75.624l43.926-21.291zm219.932 117.974v78.546l-41.113 19.848v-78.546l41.113-19.848zm84.169 215.261L263.5 492.55V236.658l51.873-25.042a7.5 7.5 0 1 0-6.522-13.508L256 223.623l-20.796-10.04a7.498 7.498 0 0 0-10.015 3.493 7.5 7.5 0 0 0 3.493 10.015l19.818 9.567V492.55L31.032 387.566V131.674l165.6 79.945a7.463 7.463 0 0 0 3.255.748 7.5 7.5 0 0 0 3.266-14.256l-162.37-78.386 74.505-35.968L340.582 192.52c.033.046.07.087.104.132v89.999a7.502 7.502 0 0 0 10.761 6.754l56.113-27.089a7.499 7.499 0 0 0 4.239-6.754v-90.495l69.169-33.392v255.893z"/><path d="M92.926 358.479L58.811 342.01a7.5 7.5 0 0 0-6.522 13.508l34.115 16.469a7.463 7.463 0 0 0 3.255.748 7.5 7.5 0 0 0 6.759-4.241 7.499 7.499 0 0 0-3.492-10.015zm31.397-20.437l-65.465-31.604a7.501 7.501 0 0 0-6.521 13.509l65.465 31.604a7.477 7.477 0 0 0 3.255.748 7.5 7.5 0 0 0 3.266-14.257z"/></symbol><symbol viewBox="0 0 24 24" id="icon-checkbox" xmlns="http://www.w3.org/2000/svg"><path d="M19 3H5a2 2 0 0 0-2 2v14a2 2 0 0 0 2 2h14a2 2 0 0 0 2-2V5a2 2 0 0 0-2-2zm-9 14l-5-5 1.41-1.41L10 14.17l7.59-7.59L19 8l-9 9z"/></symbol><symbol viewBox="0 0 16 16" id="icon-close" xmlns="http://www.w3.org/2000/svg"><title>icon / close</title><path d="M13.248 0L7.56 5.688 1.872 0 0 1.872 5.688 7.56 0 13.248l1.872 1.872L7.56 9.432l5.688 5.688 1.872-1.872L9.432 7.56l5.688-5.688z"/></symbol><symbol viewBox="0 0 512 512" id="icon-credit-card" xmlns="http://www.w3.org/2000/svg"><path d="M368.226 148.299H31.548C14.152 148.299 0 162.451 0 179.847v224.452c0 17.396 14.152 31.548 31.548 31.548h336.677c17.396 0 31.549-14.152 31.549-31.548V179.847c0-17.396-14.152-31.548-31.548-31.548zm16.548 256c0 9.124-7.424 16.548-16.549 16.548H31.548c-9.125 0-16.548-7.424-16.548-16.548V179.847c0-9.125 7.423-16.548 16.548-16.548h336.677c9.125 0 16.549 7.423 16.549 16.548v224.452z"/><path d="M103.693 236.476H71.629c-12.976 0-23.532 10.557-23.532 23.532v16.032c0 12.976 10.556 23.532 23.532 23.532h32.064c12.976 0 23.532-10.557 23.532-23.532v-16.032c0-12.976-10.557-23.532-23.532-23.532zm-23.532 48.097h-8.532c-4.705 0-8.532-3.827-8.532-8.532v-16.033c0-4.705 3.828-8.532 8.532-8.532h8.532v33.097zm32.065-8.533c0 4.705-3.828 8.532-8.532 8.532h-8.532v-33.097h8.532c4.704.001 8.532 3.828 8.532 8.533v16.032zm-8.532 48.613H55.597c-4.142 0-7.5 3.357-7.5 7.5s3.358 7.5 7.5 7.5h48.097c4.142 0 7.5-3.357 7.5-7.5s-3.358-7.5-7.5-7.5zm80.161 0h-48.097c-4.142 0-7.5 3.357-7.5 7.5s3.358 7.5 7.5 7.5h48.097c4.142 0 7.5-3.357 7.5-7.5s-3.358-7.5-7.5-7.5zm32.064 40.08H55.597c-4.142 0-7.5 3.357-7.5 7.5s3.358 7.5 7.5 7.5H215.92a7.5 7.5 0 1 0-.001-15zm48.097-40.08h-48.097c-4.142 0-7.5 3.357-7.5 7.5s3.358 7.5 7.5 7.5h48.097c4.142 0 7.5-3.357 7.5-7.5s-3.358-7.5-7.5-7.5zm80.161 0H296.08c-4.142 0-7.5 3.357-7.5 7.5s3.358 7.5 7.5 7.5h48.097c4.142 0 7.5-3.357 7.5-7.5s-3.358-7.5-7.5-7.5zm-32.064-128.257c-13.182 0-24.871 6.486-32.064 16.427-7.194-9.942-18.883-16.427-32.064-16.427-21.816 0-39.564 17.748-39.564 39.564s17.749 39.564 39.564 39.564c13.182 0 24.871-6.486 32.064-16.427 7.194 9.942 18.883 16.427 32.064 16.427 21.816 0 39.564-17.748 39.564-39.564s-17.748-39.564-39.564-39.564zm-64.129 64.128c-13.545 0-24.564-11.02-24.564-24.564s11.02-24.564 24.564-24.564 24.564 11.02 24.564 24.564-11.019 24.564-24.564 24.564zm64.129 0c-13.545 0-24.564-11.02-24.564-24.564s11.02-24.564 24.564-24.564 24.564 11.02 24.564 24.564-11.019 24.564-24.564 24.564z"/><path d="M480.452 76.153H143.774c-17.396 0-31.549 14.152-31.549 31.548v16.032a7.5 7.5 0 0 0 7.5 7.5H497v33.098h-72.661c-4.142 0-7.5 3.357-7.5 7.5s3.358 7.5 7.5 7.5H497v152.822c0 9.125-7.423 16.548-16.548 16.548h-56.115c-4.142 0-7.5 3.357-7.5 7.5s3.358 7.5 7.5 7.5h56.115c17.396 0 31.548-14.152 31.548-31.548V107.701c0-17.395-14.152-31.548-31.548-31.548zM497 116.233H127.226v-8.532c0-9.124 7.424-16.548 16.549-16.548h336.677c9.125 0 16.548 7.424 16.548 16.548v8.532z"/></symbol><symbol viewBox="0 0 256 160" id="icon-dropdown" xmlns="http://www.w3.org/2000/svg"><title>icon / arrow / dropdown-darkblue</title><path d="M54.6 9.4C42.1-3.1 21.8-3.1 9.3 9.4c-12.4 12.5-12.4 32.7.1 45.2l96 96c12.5 12.5 32.8 12.5 45.3 0l96-96c12.5-12.5 12.5-32.8 0-45.3s-32.8-12.5-45.3 0L128 82.7 54.6 9.4z"/></symbol><symbol viewBox="0 0 155.139 155.139" id="icon-facebook" xmlns="http://www.w3.org/2000/svg"><path d="M89.584 155.139V84.378h23.742l3.562-27.585H89.584V39.184c0-7.984 2.208-13.425 13.67-13.425l14.595-.006V1.08C115.325.752 106.661 0 96.577 0 75.52 0 61.104 12.853 61.104 36.452v20.341H37.29v27.585h23.814v70.761h28.48z"/></symbol><symbol viewBox="0 0 491.858 491.858" id="icon-google-plus" xmlns="http://www.w3.org/2000/svg"><path d="M377.472 224.957H201.319v58.718H308.79c-16.032 51.048-63.714 88.077-120.055 88.077-69.492 0-125.823-56.335-125.823-125.824 0-69.492 56.333-125.823 125.823-125.823 34.994 0 66.645 14.289 89.452 37.346l42.622-46.328c-34.04-33.355-80.65-53.929-132.074-53.929C84.5 57.193 0 141.693 0 245.928s84.5 188.737 188.736 188.737c91.307 0 171.248-64.844 188.737-150.989v-58.718l-.001-.001zm114.386-.1h-36.031v-36.031h-30.886v36.031H388.91v30.883h36.031v36.032h30.886V255.74h36.031z"/></symbol><symbol viewBox="0 0 21 14" id="icon-menu" xmlns="http://www.w3.org/2000/svg"><title>icon / menu / green</title><path d="M.583 1.167A.58.58 0 0 1 1.16.583h18.682c.319 0 .576.258.576.584a.58.58 0 0 1-.576.583H1.159a.577.577 0 0 1-.576-.583zM.583 7a.58.58 0 0 1 .576-.583h18.682c.319 0 .576.257.576.583a.58.58 0 0 1-.576.583H1.159A.577.577 0 0 1 .583 7zm0 5.833a.58.58 0 0 1 .576-.583h18.682c.319 0 .576.258.576.583a.58.58 0 0 1-.576.584H1.159a.577.577 0 0 1-.576-.584z"/></symbol><symbol viewBox="0 0 512 512" id="icon-online-shop" xmlns="http://www.w3.org/2000/svg"><path d="M480.451 40.081H31.549C14.152 40.081 0 54.233 0 71.629v304.613c0 17.396 14.152 31.548 31.549 31.548h151.826l-6.141 49.129H151.79a7.5 7.5 0 0 0-7.5 7.5 7.5 7.5 0 0 0 7.5 7.5h208.42a7.5 7.5 0 0 0 7.5-7.5 7.5 7.5 0 0 0-7.5-7.5h-25.443l-6.142-49.129h151.826c17.396 0 31.549-14.152 31.549-31.548V71.629c0-17.396-14.152-31.548-31.549-31.548zm-288.1 416.838l6.142-49.129h27.603l2.708 10.83a27.993 27.993 0 0 0 27.197 21.234 27.993 27.993 0 0 0 27.197-21.234l2.708-10.83h27.603l6.14 49.129H192.351zm49.206-49.129h28.885l-1.798 7.192c-1.453 5.813-6.652 9.872-12.645 9.872s-11.191-4.06-12.645-9.872l-1.797-7.192zM497 376.242c0 9.125-7.424 16.548-16.549 16.548H31.549c-9.125 0-16.549-7.423-16.549-16.548V71.629c0-9.125 7.424-16.548 16.549-16.548h448.902c9.125 0 16.549 7.423 16.549 16.548v304.613z"/><path d="M424.338 72.146H39.564a7.499 7.499 0 0 0-7.5 7.5v288.58c0 4.143 3.357 7.5 7.5 7.5h16.033c4.143 0 7.5-3.357 7.5-7.5a7.499 7.499 0 0 0-7.499-7.5h-8.533V87.146h377.273a7.5 7.5 0 0 0 7.5-7.5c0-4.143-3.357-7.5-7.5-7.5zm48.098 0h-16.033a7.499 7.499 0 0 0-7.5 7.5 7.5 7.5 0 0 0 7.5 7.5h8.533v273.58H87.662a7.5 7.5 0 0 0-7.5 7.5c0 4.143 3.357 7.5 7.5 7.5h384.773c4.143 0 7.5-3.357 7.5-7.5V79.646a7.498 7.498 0 0 0-7.499-7.5z"/><path d="M358.1 155.184a7.497 7.497 0 0 0-5.565-2.87l-176.354-8.017a7.062 7.062 0 0 0-.412-.007 15.54 15.54 0 0 0-6.236-8.391l-21.597-14.398a7.5 7.5 0 0 0-8.32 12.481l21.596 14.396a.522.522 0 0 1 .211.289l27.509 96.281c.858 3.002 2.27 5.7 4.083 8.03l-10.065 20.13c-2.423 4.845-2.169 10.488.679 15.096a15.577 15.577 0 0 0 3.848 4.234 23.38 23.38 0 0 0-3.103 11.657c0 12.976 10.557 23.532 23.532 23.532s23.532-10.557 23.532-23.532c0-3.009-.574-5.885-1.608-8.532h68.377a23.396 23.396 0 0 0-1.608 8.532c0 12.976 10.557 23.532 23.532 23.532s23.532-10.557 23.532-23.532c0-3.764-.893-7.321-2.471-10.479a7.472 7.472 0 0 0 2.471-5.553 7.5 7.5 0 0 0-7.5-7.5H196.825c-.107 0-.288 0-.439-.245-.151-.244-.07-.405-.022-.502l9.272-18.543a23.54 23.54 0 0 0 8.67.582l105.386-12.398a31.472 31.472 0 0 0 27.25-25.146l12.606-63.034a7.5 7.5 0 0 0-1.448-6.093zm-37.971 140.381c4.705 0 8.532 3.828 8.532 8.532 0 4.705-3.827 8.532-8.532 8.532s-8.532-3.827-8.532-8.532 3.827-8.532 8.532-8.532zm-112.225 0c4.705 0 8.532 3.827 8.532 8.532s-3.827 8.532-8.532 8.532-8.532-3.827-8.532-8.532 3.827-8.532 8.532-8.532zm-18.392-103.178l-9.399-32.895 29.985 1.363 5.199 31.532h-25.785zm23.042 54.571a8.495 8.495 0 0 1-9.201-6.13l-9.555-33.441h23.972l6.301 38.216-11.517 1.355zm43.963-5.172l-17.532 2.063-6.011-36.461h23.543v34.398zm0-49.399H230.5l-5.084-30.835 31.101 1.414v29.421zm37.982 44.93l-22.982 2.704v-32.634h25.691l-2.709 29.93zm4.067-44.93h-27.049v-28.74l29.529 1.342-2.48 27.398zm33.666 28.984a16.509 16.509 0 0 1-14.293 13.189l-8.217.967 2.547-28.139h22.759l-2.796 13.983zm5.797-28.984h-24.401l2.418-26.716 27.08 1.231-5.097 25.485z"/></symbol><symbol viewBox="0 0 21 22" id="icon-phone" xmlns="http://www.w3.org/2000/svg"><title>Path-120</title><path d="M6.095 2.403c-.308-.46-.975-.674-1.478-.455 0 0-1.2.33-2.615 1.743C.588 5.106.588 10.055 5.892 15.36c5.303 5.303 10.252 5.303 11.667 3.889 1.414-1.414 1.743-2.615 1.743-2.615a1.17 1.17 0 0 0-.48-1.418l-2.964-1.718c-.474-.274-1.15-.159-1.514.262l-.726.84a1.122 1.122 0 0 1-1.475.18s-1.288-.82-3.07-2.602c-1.782-1.782-2.602-3.07-2.602-3.07a1.141 1.141 0 0 1 .175-1.481l1.1-.964a1.18 1.18 0 0 0 .197-1.495L6.095 2.403z"/></symbol><symbol viewBox="0 0 612 612" id="icon-search" xmlns="http://www.w3.org/2000/svg"><path d="M0 229.5C0 356.2 102.8 459 229.5 459c53 0 101.7-18.1 140.6-48.4l193 193c5.6 5.6 12.9 8.4 20.3 8.4 7.3 0 14.7-2.8 20.3-8.4 5.6-5.6 8.4-12.9 8.4-20.3 0-7.3-2.8-14.7-8.4-20.3l-193-193c30.2-38.9 48.4-87.5 48.4-140.6C459 102.8 356.2 0 229.5 0S0 102.8 0 229.5zm401.6 0c0 94.9-77.2 172.1-172.1 172.1S57.4 324.4 57.4 229.5 134.6 57.4 229.5 57.4s172.1 77.2 172.1 172.1z"/></symbol><symbol viewBox="0 0 512 512" id="icon-shop" xmlns="http://www.w3.org/2000/svg"><path d="M488.468 448.903h-8.532V226.4C499.202 214.003 512 192.386 512 167.822a7.505 7.505 0 0 0-.988-3.721L451.499 59.953a23.587 23.587 0 0 0-20.432-11.857H80.933a23.585 23.585 0 0 0-20.432 11.857L.988 164.101A7.508 7.508 0 0 0 0 167.822c0 24.564 12.798 46.181 32.064 58.578v222.503h-8.532a7.5 7.5 0 0 0 0 15h464.936a7.5 7.5 0 0 0 0-15zM15.517 175.322h24.044a7.5 7.5 0 0 0 0-15H20.424l53.101-92.927a8.551 8.551 0 0 1 7.408-4.299h350.134a8.55 8.55 0 0 1 7.408 4.299l53.1 92.927h-19.141a7.5 7.5 0 0 0-7.5 7.5 7.5 7.5 0 0 0 7.5 7.5h24.048c-3.667 26.584-26.532 47.125-54.108 47.125-27.575 0-50.429-20.543-54.097-47.125h52.096a7.5 7.5 0 0 0 7.5-7.5 7.5 7.5 0 0 0-7.5-7.5H71.631a7.5 7.5 0 0 0 0 15h52.091c-3.668 26.582-26.523 47.125-54.097 47.125-27.576 0-50.441-20.541-54.108-47.125zm356.705 0c-3.668 26.582-26.523 47.125-54.097 47.125-27.575 0-50.429-20.543-54.097-47.125h108.194zm-124.25 0c-3.668 26.582-26.523 47.125-54.097 47.125s-50.429-20.543-54.097-47.125h108.194zm176.882 273.582h-81.193v-25.081h81.193v25.081zm0-40.081h-81.193V271.516h81.193v137.307zm40.082 40.081h-25.081V264.016a7.5 7.5 0 0 0-7.5-7.5h-96.193a7.5 7.5 0 0 0-7.5 7.5v184.887H47.064V233.674a69.289 69.289 0 0 0 22.561 3.773c27.095 0 50.624-15.556 62.125-38.207 11.501 22.65 35.03 38.207 62.125 38.207S244.499 221.891 256 199.24c11.501 22.65 35.03 38.207 62.125 38.207s50.624-15.556 62.125-38.207c11.501 22.65 35.03 38.207 62.125 38.207 7.896 0 15.48-1.34 22.561-3.772v215.229z"/><path d="M296.081 256.516H79.645a7.5 7.5 0 0 0-7.5 7.5v152.307a7.5 7.5 0 0 0 7.5 7.5h216.436a7.5 7.5 0 0 0 7.5-7.5V264.016c0-4.143-3.357-7.5-7.5-7.5zm-7.5 152.307H87.145V271.516h201.436v137.307z"/></symbol><symbol viewBox="0 0 612 612" id="icon-twitter" xmlns="http://www.w3.org/2000/svg"><path d="M612 116.258a250.714 250.714 0 0 1-72.088 19.772c25.929-15.527 45.777-40.155 55.184-69.411-24.322 14.379-51.169 24.82-79.775 30.48-22.907-24.437-55.49-39.658-91.63-39.658-69.334 0-125.551 56.217-125.551 125.513 0 9.828 1.109 19.427 3.251 28.606-104.326-5.24-196.835-55.223-258.75-131.174-10.823 18.51-16.98 40.078-16.98 63.101 0 43.559 22.181 81.993 55.835 104.479a125.556 125.556 0 0 1-56.867-15.756v1.568c0 60.806 43.291 111.554 100.693 123.104-10.517 2.83-21.607 4.398-33.08 4.398-8.107 0-15.947-.803-23.634-2.333 15.985 49.907 62.336 86.199 117.253 87.194-42.947 33.654-97.099 53.655-155.916 53.655-10.134 0-20.116-.612-29.944-1.721 55.567 35.681 121.536 56.485 192.438 56.485 230.948 0 357.188-191.291 357.188-357.188l-.421-16.253c24.666-17.593 46.005-39.697 62.794-64.861z"/></symbol></svg>