<?xml version="1.0" encoding="utf-8"?>
<!-- Generator: Adobe Illustrator 21.1.0, SVG Export Plug-In . SVG Version: 6.00 Build 0)  -->
<svg version="1.1" id="Capa_1" xmlns="http://www.w3.org/2000/svg" xmlns:xlink="http://www.w3.org/1999/xlink" x="0px" y="0px"
	 viewBox="0 0 612 612" style="enable-background:new 0 0 612 612;" xml:space="preserve">
<g>
	<g id="Search">
		<g>
			<path d="M0,229.5C0,356.2,102.8,459,229.5,459c53,0,101.7-18.1,140.6-48.4l193,193c5.6,5.6,12.9,8.4,20.3,8.4
				c7.3,0,14.7-2.8,20.3-8.4c5.6-5.6,8.4-12.9,8.4-20.3c0-7.3-2.8-14.7-8.4-20.3l-193-193c30.2-38.9,48.4-87.5,48.4-140.6
				C459,102.8,356.2,0,229.5,0S0,102.8,0,229.5z M401.6,229.5c0,94.9-77.2,172.1-172.1,172.1S57.4,324.4,57.4,229.5
				S134.6,57.4,229.5,57.4S401.6,134.6,401.6,229.5z"/>
		</g>
	</g>
</g>
</svg>
