<?xml version="1.0" encoding="iso-8859-1"?>
<!-- Generator: Adobe Illustrator 19.0.0, SVG Export Plug-In . SVG Version: 6.00 Build 0)  -->
<svg version="1.1" id="Capa_1" xmlns="http://www.w3.org/2000/svg" xmlns:xlink="http://www.w3.org/1999/xlink" x="0px" y="0px"
	 viewBox="0 0 512 512" style="enable-background:new 0 0 512 512;" xml:space="preserve">
<g>
	<g>
		<path d="M368.226,148.299H31.548C14.152,148.299,0,162.451,0,179.847v224.452c0,17.396,14.152,31.548,31.548,31.548h336.677
			c17.396,0,31.549-14.152,31.549-31.548V179.847C399.774,162.451,385.622,148.299,368.226,148.299z M384.774,404.299
			L384.774,404.299c0,9.124-7.424,16.548-16.549,16.548H31.548c-9.125,0-16.548-7.424-16.548-16.548V179.847
			c0-9.125,7.423-16.548,16.548-16.548h336.677c9.125,0,16.549,7.423,16.549,16.548V404.299z"/>
	</g>
</g>
<g>
	<g>
		<path d="M103.693,236.476H71.629c-12.976,0-23.532,10.557-23.532,23.532v16.032c0,12.976,10.556,23.532,23.532,23.532h32.064
			c12.976,0,23.532-10.557,23.532-23.532v-16.032C127.225,247.032,116.668,236.476,103.693,236.476z M80.161,284.573h-8.532
			c-4.705,0-8.532-3.827-8.532-8.532v-16.033c0-4.705,3.828-8.532,8.532-8.532h8.532V284.573z M112.226,276.04
			c0,4.705-3.828,8.532-8.532,8.532h-8.532v-33.097h8.532c4.704,0.001,8.532,3.828,8.532,8.533V276.04z"/>
	</g>
</g>
<g>
	<g>
		<path d="M103.694,324.653H55.597c-4.142,0-7.5,3.357-7.5,7.5s3.358,7.5,7.5,7.5h48.097c4.142,0,7.5-3.357,7.5-7.5
			S107.836,324.653,103.694,324.653z"/>
	</g>
</g>
<g>
	<g>
		<path d="M183.855,324.653h-48.097c-4.142,0-7.5,3.357-7.5,7.5s3.358,7.5,7.5,7.5h48.097c4.142,0,7.5-3.357,7.5-7.5
			S187.997,324.653,183.855,324.653z"/>
	</g>
</g>
<g>
	<g>
		<path d="M215.919,364.733H55.597c-4.142,0-7.5,3.357-7.5,7.5s3.358,7.5,7.5,7.5H215.92c4.142,0,7.5-3.357,7.5-7.5
			S220.062,364.733,215.919,364.733z"/>
	</g>
</g>
<g>
	<g>
		<path d="M264.016,324.653h-48.097c-4.142,0-7.5,3.357-7.5,7.5s3.358,7.5,7.5,7.5h48.097c4.142,0,7.5-3.357,7.5-7.5
			S268.158,324.653,264.016,324.653z"/>
	</g>
</g>
<g>
	<g>
		<path d="M344.177,324.653H296.08c-4.142,0-7.5,3.357-7.5,7.5s3.358,7.5,7.5,7.5h48.097c4.142,0,7.5-3.357,7.5-7.5
			S348.319,324.653,344.177,324.653z"/>
	</g>
</g>
<g>
	<g>
		<path d="M312.113,196.396c-13.182,0-24.871,6.486-32.064,16.427c-7.194-9.942-18.883-16.427-32.064-16.427
			c-21.816,0-39.564,17.748-39.564,39.564c0,21.816,17.749,39.564,39.564,39.564c13.182,0,24.871-6.486,32.064-16.427
			c7.194,9.942,18.883,16.427,32.064,16.427c21.816,0,39.564-17.748,39.564-39.564C351.677,214.144,333.929,196.396,312.113,196.396
			z M247.984,260.524c-13.545,0-24.564-11.02-24.564-24.564c0-13.544,11.02-24.564,24.564-24.564s24.564,11.02,24.564,24.564
			C272.548,249.504,261.529,260.524,247.984,260.524z M312.113,260.524c-13.545,0-24.564-11.02-24.564-24.564
			c0-13.544,11.02-24.564,24.564-24.564s24.564,11.02,24.564,24.564C336.677,249.504,325.658,260.524,312.113,260.524z"/>
	</g>
</g>
<g>
	<g>
		<path d="M480.452,76.153H143.774c-17.396,0-31.549,14.152-31.549,31.548v16.032c0,4.143,3.358,7.5,7.5,7.5H497v33.098h-72.661
			c-4.142,0-7.5,3.357-7.5,7.5s3.358,7.5,7.5,7.5H497v152.822c0,9.125-7.423,16.548-16.548,16.548h-56.115
			c-4.142,0-7.5,3.357-7.5,7.5s3.358,7.5,7.5,7.5h56.115c17.396,0,31.548-14.152,31.548-31.548V107.701
			C512,90.306,497.848,76.153,480.452,76.153z M497,116.233H127.226v-8.532c0-9.124,7.424-16.548,16.549-16.548h336.677
			c9.125,0,16.548,7.424,16.548,16.548V116.233z"/>
	</g>
</g>
<g>
</g>
<g>
</g>
<g>
</g>
<g>
</g>
<g>
</g>
<g>
</g>
<g>
</g>
<g>
</g>
<g>
</g>
<g>
</g>
<g>
</g>
<g>
</g>
<g>
</g>
<g>
</g>
<g>
</g>
</svg>
