<?xml version="1.0" encoding="UTF-8" standalone="no"?>
<svg width="21px" height="14px" viewBox="0 0 21 14" version="1.1" xmlns="http://www.w3.org/2000/svg" xmlns:xlink="http://www.w3.org/1999/xlink">
    <!-- Generator: Sketch 47 (45396) - http://www.bohemiancoding.com/sketch -->
    <title>icon / menu / green</title>
    <desc>Created with Sketch.</desc>
    <defs></defs>
    <g id="Symbols" stroke="none" stroke-width="1" fill="none" fill-rule="evenodd">
        <g id="header/mobile" transform="translate(-270.000000, -28.000000)" stroke="#717463" fill="#717463">
            <g id="icon-/-menu-/-green" transform="translate(270.000000, 28.000000)">
                <g id="menu">
                    <path d="M0.583333333,1.16666667 C0.583333333,0.84373142 0.842045832,0.583333333 1.15896396,0.583333333 L19.841036,0.583333333 C20.159975,0.583333333 20.4166667,0.841043758 20.4166667,1.16666667 C20.4166667,1.48960191 20.1579541,1.75 19.841036,1.75 L1.15896396,1.75 C0.840024978,1.75 0.583333333,1.49228958 0.583333333,1.16666667 Z M0.583333333,7 C0.583333333,6.6770648 0.842045832,6.41666667 1.15896396,6.41666667 L19.841036,6.41666667 C20.159975,6.41666667 20.4166667,6.67437703 20.4166667,7 C20.4166667,7.3229352 20.1579541,7.58333333 19.841036,7.58333333 L1.15896396,7.58333333 C0.840024978,7.58333333 0.583333333,7.32562297 0.583333333,7 Z M0.583333333,12.8333333 C0.583333333,12.5103981 0.842045832,12.25 1.15896396,12.25 L19.841036,12.25 C20.159975,12.25 20.4166667,12.5077104 20.4166667,12.8333333 C20.4166667,13.1562685 20.1579541,13.4166667 19.841036,13.4166667 L1.15896396,13.4166667 C0.840024978,13.4166667 0.583333333,13.1589563 0.583333333,12.8333333 Z" id="Combined-Shape"></path>
                </g>
            </g>
        </g>
    </g>
</svg>