<?xml version="1.0" encoding="UTF-8" standalone="no"?>
<svg width="21px" height="22px" viewBox="0 0 21 22" version="1.1" xmlns="http://www.w3.org/2000/svg" xmlns:xlink="http://www.w3.org/1999/xlink">
    <!-- Generator: Sketch 47 (45396) - http://www.bohemiancoding.com/sketch -->
    <title>Path-120</title>
    <desc>Created with Sketch.</desc>
    <defs></defs>
    <g id="Symbols" stroke="none" stroke-width="1" fill="none" fill-rule="evenodd">
        <g id="icon-/-contact-/-green" transform="translate(-2.000000, 0.000000)" stroke="#717463" stroke-width="2">
            <path d="M15.8303479,3.04479684 C15.9381437,2.50181023 15.6178098,1.87821721 15.1078277,1.67786645 C15.1078277,1.67786645 14.0255294,1.06163262 12.0255294,1.06163262 C10.0255294,1.06163262 6.52552941,4.56163262 6.52552941,12.0616326 C6.52552941,19.5616326 10.0255294,23.0616326 12.0255294,23.0616326 C14.0255294,23.0616326 15.1078277,22.4453988 15.1078277,22.4453988 C15.6146603,22.2334506 15.9116782,21.6338829 15.770354,21.1029149 L14.889462,17.7933211 C14.7485325,17.2638359 14.1888775,16.8671312 13.6335443,16.9076865 L12.5262717,16.9885495 C11.973577,17.0289122 11.4451957,16.6219847 11.3562522,16.0719235 C11.3562522,16.0719235 11.0255294,14.582025 11.0255294,12.0616326 C11.0255294,9.54124029 11.3562522,8.05134174 11.3562522,8.05134174 C11.4497414,7.50474049 11.978166,7.09131273 12.5269731,7.12729888 L13.9863963,7.22299559 C14.5394784,7.25926206 15.0763128,6.84300827 15.1830214,6.30549763 L15.8303479,3.04479684 Z" id="Path-120" transform="translate(11.188368, 12.061633) rotate(-45.000000) translate(-11.188368, -12.061633) "></path>
        </g>
    </g>
</svg>